<svg width="38" height="38" viewBox="0 0 38 38" fill="none" xmlns="http://www.w3.org/2000/svg">
<path d="M1.90792 20.9021H3.8081V34.2005C3.8081 36.2902 5.51826 38 7.60845 38H30.4106C32.5007 38 34.2109 36.2902 34.2109 34.2005V20.9021H36.1111C36.8711 20.9021 37.5742 20.4461 37.8592 19.7242C38.1443 19.0213 37.9923 18.2044 37.4412 17.6535L20.3586 0.555576C20.1828 0.379461 19.974 0.239737 19.7442 0.144404C19.5143 0.0490709 19.2679 0 19.019 0C18.7701 0 18.5237 0.0490709 18.2938 0.144404C18.064 0.239737 17.8552 0.379461 17.6794 0.555576L0.5588 17.6535C0.00774938 18.2044 -0.144265 19.0213 0.140762 19.7242C0.425788 20.4271 1.12885 20.9021 1.88892 20.9021H1.90792ZM19.0095 4.58308L30.4106 15.9817V34.2005H7.60845V15.9817L19.0095 4.58308Z" fill="black"/>
</svg>
